<svg width="42" height="43" viewBox="0 0 42 43" fill="none" xmlns="http://www.w3.org/2000/svg">
<rect x="1" y="1.88525" width="39.2292" height="39.2292" rx="19.6146" stroke="#209CDF" stroke-width="2"/>
<path d="M21 22.4999C23.7614 22.4999 26 20.2613 26 17.4999C26 14.7385 23.7614 12.4999 21 12.4999C18.2386 12.4999 16 14.7385 16 17.4999C16 20.2613 18.2386 22.4999 21 22.4999ZM21 22.4999C23.1217 22.4999 25.1566 23.3427 26.6569 24.843C28.1571 26.3433 29 28.3781 29 30.4999M21 22.4999C18.8783 22.4999 16.8434 23.3427 15.3431 24.843C13.8429 26.3433 13 28.3781 13 30.4999" stroke="#209CFF" stroke-width="2" stroke-linecap="round" stroke-linejoin="round"/>
</svg>
